<svg width="70" height="88" viewBox="0 0 70 88" fill="none" xmlns="http://www.w3.org/2000/svg">
<path fill-rule="evenodd" clip-rule="evenodd" d="M17.4179 1.10539C17.6054 0.917857 17.8598 0.8125 18.125 0.8125H68.75C69.3023 0.8125 69.75 1.26022 69.75 1.8125V86.1875C69.75 86.7398 69.3023 87.1875 68.75 87.1875H1.25C0.697715 87.1875 0.25 86.7398 0.25 86.1875V18.6875C0.25 18.4223 0.355357 18.1679 0.542893 17.9804L17.4179 1.10539ZM3.66422 17.6875L17.125 4.22672V17.6875H3.66422ZM2.25 85.1875V19.6875H18.125C18.6773 19.6875 19.125 19.2398 19.125 18.6875V2.8125H67.75V85.1875H2.25ZM12.5 42.1875H40.625V40.1875H12.5V42.1875ZM57.5 56.25H12.5V54.25H57.5V56.25ZM12.5 70.3125H40.625V68.3125H12.5V70.3125Z" fill="white"/>
</svg>
